<svg xmlns="http://www.w3.org/2000/svg" width="30.5" height="30" viewBox="0 0 61 60"><g><g><path fill="#fff" d="M54.66 47.954c-.5.673-1.035 1.333-1.59 1.961a2.322 2.322 0 0 1-1.746.787 2.334 2.334 0 0 1-1.743-3.875c.469-.531.92-1.088 1.343-1.656a2.326 2.326 0 0 1 3.257-.48 2.333 2.333 0 0 1 .478 3.263zm5.195-11.422a29.872 29.872 0 0 1-.642 2.446 2.33 2.33 0 0 1-2.912 1.539 2.331 2.331 0 0 1-1.537-2.915c.208-.676.39-1.369.54-2.062a2.329 2.329 0 1 1 4.55.992zM46.143 53.057a2.333 2.333 0 0 1-.898 3.172c-.733.41-1.492.793-2.256 1.139a2.328 2.328 0 0 1-3.08-1.166 2.333 2.333 0 0 1 1.164-3.084 25.327 25.327 0 0 0 1.902-.96 2.326 2.326 0 0 1 3.168.9zM30.62 9.177a2.33 2.33 0 0 1 2.328 2.331v18.65c0 .618-.245 1.211-.682 1.649l-9.219 9.23a2.32 2.32 0 0 1-1.646.684 2.333 2.333 0 0 1-1.646-3.98l8.537-8.548V11.508a2.33 2.33 0 0 1 2.328-2.331zm29.8-1.516v6.877a7.464 7.464 0 0 1-3.367 6.237 7.397 7.397 0 0 1-4.083 1.224h-7.108a2.33 2.33 0 0 1-2.328-2.331 2.33 2.33 0 0 1 2.328-2.331h6.402C47.773 9.749 39.555 4.98 30.62 4.98c-13.865 0-25.144 11.294-25.144 25.177 0 13.884 11.28 25.178 25.144 25.178.02 0 .038.003.058.003.02 0 .039-.003.058-.003.71 0 1.427-.03 2.13-.089a2.328 2.328 0 0 1 2.515 2.13 2.33 2.33 0 0 1-2.126 2.517c-.832.07-1.68.104-2.519.104l-.058-.002-.058.002c-7.96 0-15.443-3.103-21.072-8.74C3.919 45.624.82 38.129.82 30.159c0-7.97 3.1-15.464 8.728-21.1C15.177 3.422 22.66.318 30.62.318c10.261 0 19.725 5.307 25.144 13.817V7.66a2.33 2.33 0 0 1 2.328-2.331 2.33 2.33 0 0 1 2.328 2.331z"/></g></g></svg>