<svg xmlns="http://www.w3.org/2000/svg" width="21.5" height="30" viewBox="0 0 43 60"><g><g><path fill="#fff" d="M42.29 24.05c-.956-2.02-2.982-3.274-5.288-3.274h-8.545l7.669-13.097a4.745 4.745 0 0 0 .039-4.927c-.913-1.56-2.56-2.49-4.408-2.49a5.18 5.18 0 0 0-3.189 1.095c-.045.036-.09.073-.132.112L2.461 25.117C.738 26.572-.165 28.653-.018 30.836c.254 3.767 3.364 6.608 7.233 6.608h8.116l-8.216 15.32a2.267 2.267 0 0 0-.024.046c-1.118 2.202-.466 4.742 1.585 6.178.913.64 1.952.954 2.984.954a5.12 5.12 0 0 0 3.628-1.52l18.607-19.51c.901-.945.843-2.42-.13-3.295a2.452 2.452 0 0 0-3.393.127L11.807 55.21c-.077.07-.156.113-.323-.003-.177-.125-.146-.215-.096-.315l10.03-18.702a2.274 2.274 0 0 0-.077-2.286 2.416 2.416 0 0 0-2.052-1.122H7.215c-1.503 0-2.366-1.132-2.441-2.25-.035-.519.085-1.272.856-1.912l.08-.07L31.624 4.957a.277.277 0 0 1 .133-.034c.047 0 .156 0 .232.13a.23.23 0 0 1-.002.261 4.149 4.149 0 0 0-.025.042l-9.719 16.598a2.273 2.273 0 0 0 .012 2.324 2.415 2.415 0 0 0 2.075 1.16h12.672c.574 0 .825.35.924.558.1.213.213.636-.171 1.07a2.285 2.285 0 0 0 .257 3.287 2.45 2.45 0 0 0 3.385-.25c1.51-1.705 1.851-4.025.892-6.054z"/></g></g></svg>