<svg xmlns="http://www.w3.org/2000/svg" width="183.5" height="22.5" viewBox="0 0 367 45"><g><g><path fill="#fff" d="M86.13 44.006l-18.102.004-.62-.008-.66-.027-.676-.047-.691-.065-.707-.094-.719-.117-.73-.148-.738-.178-.742-.21-.742-.245-.746-.284-.746-.323-.739-.37-.726-.412-.718-.458-.703-.51-.684-.564-.66-.61-.633-.665-.6-.72-.566-.777-.532-.825-.484-.882-.445-.933-.395-.992-.352-1.042-.296-1.094-.25-1.15-.192-1.206-.144-1.26-.082-1.314-.032-1.35V.93h10.444v24.216l.015.87.05.79.075.728.102.672.125.614.144.565.164.509.176.462.192.417.199.377.21.338.22.304.225.272.236.244.237.227.25.197.258.184.27.167.276.147.29.136.296.121.309.105.313.094.32.081.328.07.336.055.332.046.336.035.336.024.336.019.328.008.315.004h7.292l.633-.004h9.885zm239.415-33.762l-.414-.097-.442-.077-.469-.059-.492-.035-.508-.012-.78.024-.695.073-.633.11-.57.147-.516.178-.465.206-.422.23-.386.257-.356.276-.323.3-.305.322-.277.342-.258.366-.234.389-.22.405-.194.416-.172.431-.156.44-.137.443-.117.447-.102.444-.086.435-.066.424-.055.408-.043.39-.03.369-.025.341-.01.308-.009.276-.004.241-.004.21v24.465h-10.439V.949h10.162v1.264l.402-.232.414-.23.422-.21.426-.198.429-.183.438-.168.437-.155.441-.14.445-.125.445-.109.45-.1.449-.085.453-.072.453-.057.453-.043.453-.034.454-.017.457-.008.823.016.804.043.782.074.76.101.74.128.71.156.691.174.664.203.645.221.621.241.597.261.57.276.548.296.526.308.5.318.477.33.453.339.433.35.41.353.387.36.367.36.344.361.125.14.07-.077.403-.409.418-.392.425-.381.441-.362.45-.35.46-.334.47-.315.48-.304.488-.284.5-.267.503-.253.516-.238.52-.221.526-.202.535-.187.54-.167.546-.152.55-.136.555-.117.559-.102.563-.08.565-.066.57-.044.575-.026.574-.012.664.012.679.035.7.061.71.094.726.116.738.148.743.183.75.218.754.249.752.291.754.331.75.369.746.416.731.46.723.505.703.551.682.604.66.653.633.708.602.754.566.809.532.86.492.91.445.963.402 1.016.352 1.065.304 1.116.254 1.171.2 1.222.143 1.27.086 1.327.031 1.357v24.255h-10.443v-24.27l-.019-.876-.047-.793-.078-.739-.106-.691-.133-.638-.151-.592-.172-.548-.191-.502-.203-.462-.22-.424-.23-.39-.242-.357-.254-.326-.261-.3-.27-.273-.277-.249-.289-.229-.293-.21-.3-.19-.31-.171-.316-.155-.32-.137-.32-.12-.332-.11-.328-.093-.328-.074-.324-.066-.321-.047-.316-.038-.309-.027-.296-.012-.29-.008-.218.004-.219.008-.219.016-.219.023-.214.027-.215.034-.215.043-.21.047-.211.05-.207.055-.203.062-.207.071-.2.07-.2.077-.19.078-.191.09-.188.09-.18.089-.179.096-.176.102-.168.1-.16.106-.164.108-.153.11-.289.225-.132.113-.129.117-.12.112-.115.117-.109.112-.094.11-.164.202-.152.194-.137.198-.129.2-.12.198-.11.201-.102.206-.093.206-.086.206-.082.215-.074.214-.066.218-.063.22-.054.227-.047.225-.047.23-.04.233-.03.241-.032.237-.023.241-.02.245-.02.25-.011.244-.012.253-.007.249-.008.514v.255l-.004.257v.257l.004.26v24.559h-10.444V19.795l-.007-.614-.028-.584-.043-.567-.058-.55-.075-.531-.089-.51-.106-.494-.121-.475-.133-.455-.148-.431-.164-.412-.176-.389-.188-.37-.199-.346-.21-.327-.223-.306-.235-.289-.242-.268-.253-.249-.27-.23-.281-.212-.296-.2-.313-.182-.332-.163-.348-.152-.371-.132zm-47.944-.268l-.648.05-.633.079-.617.104-.601.14-.582.163-.57.19-.551.218-.535.245-.519.27-.5.291-.485.319-.46.338-.45.361-.425.386-.41.408-.39.424-.368.45-.347.468-.328.485-.3.51-.286.525-.258.54-.235.56-.207.58-.183.591-.16.61-.128.626-.106.638-.075.653-.042.67-.016.676.016.68.042.665.075.655.106.637.128.622.156.607.187.59.207.576.235.556.258.54.281.522.305.501.324.487.347.463.368.447.386.424.41.4.426.382.45.361.463.339.481.31.5.292.52.269.535.24.55.214.57.19.587.164.6.137.617.108.637.079.648.045.665.016.668-.016.648-.045.637-.08.616-.107.601-.137.586-.163.571-.19.55-.214.536-.241.519-.27.5-.291.48-.31.464-.339.45-.361.425-.381.407-.4.39-.425.368-.447.347-.463.324-.487.305-.501.28-.521.259-.541.234-.556.208-.575.182-.591.16-.607.13-.622.105-.637.074-.655.043-.665.015-.68-.015-.68-.043-.666-.074-.653-.106-.638-.129-.626-.16-.61-.182-.592-.208-.58-.234-.559-.258-.54-.281-.525-.305-.51-.328-.485-.347-.467-.368-.451-.39-.424-.41-.408-.426-.386-.445-.361-.469-.343-.48-.314-.5-.292-.52-.269-.534-.245-.551-.218-.57-.19-.582-.163-.602-.14-.617-.104-.633-.079-.647-.05-.668-.016zm1.84-9.902l1.16.083 1.14.14 1.125.19 1.102.241 1.077.296 1.058.345 1.032.394 1.004.439.976.486.945.537.917.575.883.619.852.66.812.705.782.738.741.778.7.813.663.848.621.882.578.915.535.948.489.973.44 1.002.395 1.031.343 1.054.297 1.08.242 1.102.196 1.12.136 1.143.082 1.159.028 1.174-.028 1.178-.082 1.159-.14 1.14-.192 1.124-.246 1.1-.297 1.077-.347 1.054-.398 1.03-.445 1-.492.973-.535.944-.582.914-.62.88-.669.843-.704.813-.745.773-.777.74-.816.695-.852.658-.887.619-.913.57-.945.53-.977.486-1.004.44-1.027.388-1.054.342-1.078.295-1.097.241-1.118.192-1.136.135-1.152.082-1.171.028-1.168-.028-1.153-.082-1.135-.135-1.118-.192-1.097-.24-1.078-.296-1.05-.342-1.031-.388-1.004-.44-.973-.487-.949-.528-.913-.571-.887-.619-.852-.658-.816-.696-.78-.739-.742-.773-.704-.813-.664-.843-.625-.88-.582-.914-.535-.944-.492-.973-.445-1-.395-1.03-.35-1.054-.297-1.078-.246-1.1-.192-1.123-.14-1.14-.082-1.159-.032-1.178.032-1.174.082-1.16.136-1.142.192-1.12.246-1.101.297-1.081.342-1.054.395-1.031.441-1.002.49-.973.534-.948.578-.915.62-.882.665-.848.699-.813.741-.777.782-.744.812-.7.852-.66.887-.619.913-.575.95-.537.975-.486 1-.439 1.036-.394 1.053-.345 1.082-.296 1.098-.24 1.125-.192 1.14-.14 1.16-.082 1.172-.027zm-27.154 27.654l-2.043 4.316-.297.592-.316.59-.336.596-.359.591-.379.59-.403.592-.429.587-.45.58-.471.575-.496.565-.524.555-.551.545-.574.532-.6.518-.63.502-.655.481-.684.463-.711.439-.738.42-.77.394-.793.365-.824.339-.851.306-.878.281-.903.24-.933.211-.96.174-.985.14-1.015.098-1.04.062-1.07.02-1.328-.032-1.296-.093-1.269-.16-1.235-.213-1.198-.277-1.164-.33-1.125-.389-1.094-.44-1.05-.49-1.011-.536-.97-.584-.932-.63-.887-.669-.843-.707-.805-.746-.757-.779-.715-.812-.668-.844-.625-.871-.582-.894-.535-.922-.488-.937-.445-.96-.398-.977-.356-.996-.305-1.006-.261-1.016-.215-1.03-.164-1.035-.121-1.042-.071-1.046-.027-1.05.023-.98.075-.984.113-.983.164-.989.207-.987.254-.98.297-.976.344-.968.39-.96.434-.946.475-.933.524-.915.566-.897.613-.875.661-.853.703-.824.75-.796.793-.763.84-.73.881-.694.926-.653.973-.61 1.012-.564 1.057-.513 1.098-.463 1.14-.408 1.18-.355 1.214-.295 1.258-.23 1.293-.166 1.327-.106 1.351-.031.922.016.907.047.89.077.878.113.867.14.852.172.84.198.824.233.808.26.792.288.778.319.758.343.742.372.726.397.707.428.683.45.668.476.648.498.63.524.605.549.586.567.562.596.543.61.516.634.495.653.473.673.45.692.425.712.398.727.375.747.352.762 1.842 4.39h-11.33l-1.085-2.01-.32-.533-.332-.494-.344-.454-.347-.428-.36-.394-.362-.36-.371-.34-.375-.31-.38-.284-.382-.264-.387-.238-.382-.221-.387-.199-.383-.18-.387-.158-.379-.148-.375-.128-.367-.11-.358-.1-.352-.086-.336-.07-.328-.058-.312-.051-.301-.039-.277-.03-.258-.025-.242-.014-.219-.012-.195-.008-.172-.004h-.125l-.715.016-.676.05-.66.078-.644.113-.625.136-.609.167-.59.194-.574.222-.559.25-.538.271-.515.296-.504.318-.481.343-.461.365-.44.385-.423.409-.402.428-.379.447-.356.463-.336.485-.312.502-.288.518-.262.536-.238.552-.215.564-.188.584-.16.594-.133.607-.101.623-.078.629-.043.646-.016.653.016.677.05.66.079.65.113.634.14.622.173.606.199.596.226.575.254.565.277.543.304.53.328.513.352.49.375.478.394.455.415.432.437.417.457.388.473.373.488.346.507.323.523.296.54.275.55.245.566.222.579.195.586.163.6.14.61.104.621.08.628.049.653.016.39-.008.403-.015.402-.031.395-.044.394-.057.39-.067.388-.078.382-.093.374-.1.375-.117.368-.125.363-.136.355-.151.352-.16.348-.17.339-.184.332-.194.329-.206.32-.218.312-.23.309-.237.3-.253.29-.26.284-.273.277-.283.27-.296.258-.303.25-.319.246-.33.23-.339.227-.353 1.008-1.704zM179.04 9.976l-.628.047-.618.077-.613.109-.598.136-.585.163-.574.19-.562.222-.547.245-.535.27-.52.298-.504.32-.484.345-.472.366-.45.392-.433.413-.41.432-.39.454-.371.475-.348.493-.328.514-.3.528-.278.553-.25.563-.223.584-.199.6-.172.618-.14.63-.11.645-.082.66-.05.678-.017.688.016.669.051.654.086.64.113.627.145.61.172.6.203.579.23.563.258.55.281.536.31.514.331.501.355.478.379.463.399.443.42.424.443.4.456.385.48.358.496.339.512.315.528.288.543.267.554.239.567.213.577.19.59.16.597.132.61.105.617.075.621.045.629.016.644-.016.632-.045.625-.083.61-.105.597-.136.586-.167.57-.19.559-.219.543-.244.53-.268.516-.296.496-.32.48-.337.461-.366.446-.385.425-.405.403-.427.387-.444.359-.461.34-.484.32-.498.293-.512.27-.534.241-.544.218-.56.192-.571.164-.588.137-.599.11-.61.073-.618.047-.634.02-.646-.016-.672-.047-.666-.078-.649-.109-.641-.137-.627-.16-.615-.192-.597-.218-.584-.242-.569-.27-.55-.292-.534-.316-.517-.34-.502-.364-.478-.382-.459-.407-.44-.425-.42-.442-.396-.465-.373-.484-.35-.5-.328-.515-.302-.531-.276-.551-.253-.566-.226-.582-.199-.598-.166-.613-.144-.625-.109-.64-.082-.656-.05-.668-.016zm-7.1-8.766l1.191-.347 1.23-.29 1.27-.226 1.312-.167 1.351-.102 1.36-.03h.37l.372.007.398.012.417.02.442.023.461.039.48.047.496.057.512.07.53.09.544.101.559.12.566.14.577.16.586.182.594.203.602.23.605.252.609.284.614.308.609.337.608.374.61.4.297.219V.945h10.162v43.132h-10.162V40.97l-.129.1-.492.361-.512.351-.53.339-.56.33-.573.314-.602.3-.621.28-.644.269-.664.245-.687.226-.711.201-.73.18-.754.155-.774.128-.797.105-.815.074-.84.043-.867.016-1.176-.028-1.168-.078-1.152-.135-1.132-.184-1.117-.236-1.094-.288-1.07-.335-1.05-.385-1.02-.432-.996-.478-.968-.525-.938-.568-.901-.614-.875-.653-.836-.696-.8-.74-.767-.777-.721-.817-.684-.852-.644-.89-.598-.921-.55-.961-.509-.988-.457-1.022-.41-1.05-.355-1.078-.304-1.104-.254-1.132-.2-1.154-.144-1.18-.085-1.197-.028-1.217.02-.968.066-.973.109-.976.157-.976.194-.976.242-.972.285-.968.332-.957.375-.952.418-.938.465-.926.508-.91.559-.89.597-.87.649-.845.694-.82.738-.794.785-.759.836-.722.879-.689.926-.65.968-.601 1.02-.557 1.058-.51 1.105-.459zm-60.854 9.034l-.418-.097-.442-.077-.464-.059-.496-.035-.507-.012-.778.024-.699.073-.629.11-.57.147-.515.178-.465.206-.425.23-.387.257-.352.276-.328.3-.301.322-.281.342-.254.366-.238.389-.215.4-.195.421-.176.431-.156.44-.137.443-.117.447-.098.444-.086.435-.07.424-.055.408-.039.39-.03.369-.025.341-.015.308-.008.276-.004.241v24.675H90.67V.949h10.165v1.264l.398-.232.418-.23.418-.21.426-.198.434-.183.433-.168.438-.155.445-.136.44-.129.447-.109.448-.1.453-.085.45-.072.452-.057.453-.043.454-.034.453-.017.457-.008.824.016.805.043.784.074.758.101.738.128.715.156.687.174.668.203.64.221.621.241.598.261.57.276.551.296.523.308.5.318.477.33.457.339.428.35.411.353.39.36.363.36.348.361.125.14.067-.077.402-.409.418-.392.43-.381.437-.362.449-.35.46-.334.47-.315.48-.304.492-.284.496-.267.504-.253.515-.238.524-.221.527-.202.53-.187.54-.167.546-.152.551-.136.555-.117.562-.102.563-.08.566-.066.57-.044.57-.026.574-.012.664.012.684.035.695.061.715.094.722.116.739.148.745.183.746.218.754.249.758.291.753.331.75.369.742.416.734.46.72.505.702.551.684.604.66.653.632.708.601.754.566.809.532.86.492.91.445.963.403 1.016.355 1.065.305 1.116.25 1.171.199 1.222.144 1.27.086 1.327.032 1.357v24.255h-10.444v-24.27l-.015-.876-.051-.793-.078-.742-.106-.688-.13-.643-.151-.59-.176-.55-.187-.5-.207-.463-.219-.424-.23-.39-.243-.357-.254-.327-.257-.295-.27-.273-.28-.251-.285-.231-.298-.206-.3-.19-.31-.171-.311-.155-.32-.137-.325-.124-.328-.106-.328-.093-.328-.074-.324-.066-.324-.047-.317-.038-.308-.027-.297-.012-.288-.008-.22.004-.218.008-.22.016-.213.023-.22.03-.214.031-.211.043-.215.047-.211.05-.207.055-.203.062-.203.067-.203.074-.195.073-.192.082-.19.086-.189.09-.183.093-.18.096-.172.098-.168.105-.164.105-.16.108-.151.11-.15.112-.14.113-.132.113-.13.117-.12.112-.114.117-.11.112-.097.11-.164.202-.152.194-.137.198-.13.2-.12.201-.11.203-.101.201-.097.206-.086.21-.078.21-.075.219-.066.217-.063.218-.054.226-.094.459-.07.466-.032.241-.023.241-.039.49-.012.253-.01.249-.009.249-.008.514v25.588h-10.443V19.795l-.008-.618-.028-.584-.039-.563-.058-.553-.074-.528-.094-.514-.102-.494-.12-.475-.137-.455-.149-.431-.163-.408-.176-.393-.187-.37-.196-.346-.211-.327-.222-.307-.235-.287-.246-.265-.254-.249-.27-.23-.28-.217-.297-.195-.309-.182-.332-.163-.35-.152-.369-.132zm-88.852-.268l-.629.047-.62.077-.61.109-.597.136-.586.163-.575.19-.562.222-.547.245-.535.27-.52.298-.504.32-.484.345-.472.366-.45.392-.432.413L13.7 14l-.39.454-.37.475-.349.493-.324.514-.305.528-.273.553-.254.563-.223.584-.199.6-.171.618-.141.63-.11.645-.082.66-.05.678-.015.688.015.669.05.654.087.64.113.627.144.61.172.6.203.579.23.563.258.55.281.536.31.514.331.501.355.478.379.463.399.443.422.424.44.4.462.385.476.358.496.339.511.315.528.288.543.267.554.239.567.213.578.19.59.16.597.132.61.105.616.075.625.045.625.016.644-.016.633-.045.625-.083.61-.105.596-.136.586-.167.574-.19.555-.219.547-.244.527-.268.516-.296.495-.32.481-.337.461-.366.445-.385.426-.405.402-.423.387-.448.359-.461.344-.484.316-.498.293-.512.27-.534.242-.544.219-.56.19-.571.164-.588.138-.599.104-.61.078-.618.047-.634.016-.646-.016-.672-.047-.666-.074-.649-.108-.641-.138-.627-.163-.615-.187-.597-.22-.584-.245-.569-.266-.55-.293-.534-.316-.517-.34-.502-.363-.478-.383-.459-.406-.44-.426-.42-.442-.396-.465-.373-.484-.35-.5-.328-.515-.302-.531-.276-.551-.253-.566-.226-.582-.199-.598-.166-.613-.144-.624-.109-.641-.082-.656-.05-.668-.016zm-7.1-8.766l1.19-.347 1.231-.29 1.269-.226L20.136.18l1.348-.102 1.363-.03h.37l.372.007.399.012.417.02.442.023.46.039.48.047.496.057.512.07.531.09.543.101.559.12.566.14.577.16.586.182.598.203.598.23.605.252.613.284.61.308.609.337.61.374.608.4.297.219V.945h10.162v43.132H35.305V40.97l-.129.1-.492.361-.511.351-.531.339-.56.33-.573.314-.602.3-.62.28-.64.269-.669.245-.687.226-.707.201-.734.18-.75.155-.778.128-.793.105-.82.074-.835.043-.867.016-1.18-.028-1.168-.078-1.147-.135-1.137-.184-1.113-.236-1.098-.288-1.07-.335-1.046-.385-1.023-.432-.996-.478-.964-.525-.938-.568-.906-.614-.871-.653-.84-.696-.8-.74-.766-.777-.722-.817-.684-.852-.64-.89-.598-.921-.555-.961-.503-.988-.46-1.022-.407-1.05-.36-1.078-.304-1.104-.254-1.132-.2-1.154-.14-1.18-.09-1.197L0 22.272l.024-.968.062-.973.114-.976.152-.976.199-.976.242-.972.284-.965.33-.96.374-.952.418-.938.464-.926.512-.91.555-.89.597-.87.649-.845.695-.82.737-.794.79-.759.832-.722.878-.689.926-.645.968-.606 1.02-.557 1.058-.51 1.106-.459z"/></g></g></svg>