<svg xmlns="http://www.w3.org/2000/svg" width="25.5" height="30" viewBox="0 0 51 60"><g><g><path fill="#fff" d="M51.002 12.98v18.482c0 5.149-1.425 10.335-4.122 14.998-.642 1.11-2.04 1.477-3.12.817-1.081-.661-1.437-2.097-.794-3.207 2.278-3.94 3.483-8.3 3.483-12.608v-16.96L25.393 4.896 4.555 14.495v16.967c0 12.489 9.984 23.863 20.947 23.863 3.875 0 7.663-1.302 10.955-3.764a2.238 2.238 0 0 1 3.18.516c.74 1.044.516 2.508-.5 3.268-4.076 3.047-8.79 4.659-13.635 4.659-3.46 0-6.843-.837-10.058-2.488-3-1.541-5.716-3.716-8.072-6.465-4.684-5.465-7.37-12.604-7.37-19.59v-18.48c0-.923.526-1.759 1.345-2.136L24.457.201a2.22 2.22 0 0 1 1.855-.004l23.337 10.645a2.343 2.343 0 0 1 1.353 2.138zm-12.221 6.28c1.022.752 1.258 2.213.526 3.264L28.038 38.697a5.82 5.82 0 0 1-4.636 2.35 5.79 5.79 0 0 1-4.04-1.658l-.02-.02-7.265-7.285a2.385 2.385 0 0 1-.04-3.308 2.234 2.234 0 0 1 3.22-.04l7.253 7.271c.358.345.763.373.975.359a1.28 1.28 0 0 0 .896-.46L35.604 19.8a2.237 2.237 0 0 1 3.177-.54z"/></g></g></svg>