<svg xmlns="http://www.w3.org/2000/svg" width="27" height="27" viewBox="0 0 54 54"><g><g><path fill="#fff" d="M49.774 27.113v-6.01a4.222 4.222 0 0 0-4.218-4.215H6.331a6.3 6.3 0 0 1-2.109-.362v29.033a4.221 4.221 0 0 0 4.218 4.215h37.116a4.212 4.212 0 0 0 4.002-2.88 2.11 2.11 0 0 1 4.001 1.334 8.425 8.425 0 0 1-8.003 5.762H8.44C3.79 53.99.005 50.208.005 45.56V10.037c0-.297.061-.578.172-.834A6.337 6.337 0 0 1 6.33 4.345h3.902a2.108 2.108 0 1 1 0 4.216H6.33c-1.145 0-2.08.918-2.108 2.055a2.11 2.11 0 0 0 2.108 2.056h3.175L29.822.33a2.107 2.107 0 0 1 2.91.728l2.386 4.037 5.29-3.28a2.106 2.106 0 0 1 1.602-.258c.546.13 1.019.473 1.311.952l7.174 11.766a8.423 8.423 0 0 1 3.496 6.829v16.549a2.108 2.108 0 0 1-2.108 2.108c-.036 0-.07-.004-.105-.005-.036.001-.07.005-.106.005h-8.963a6.333 6.333 0 0 1-6.327-6.324 6.332 6.332 0 0 1 6.327-6.324zm0 4.215h-7.065a2.11 2.11 0 0 0-2.109 2.109 2.11 2.11 0 0 0 2.109 2.108h7.065zM34.698 12.672l-1.961-3.318a2.292 2.292 0 0 1-.15-.209c-.061-.099-.11-.201-.154-.305l-2.245-3.799-12.56 7.63zm9.88 0l-3.752-6.155-3.562 2.209 2.333 3.946z"/></g></g></svg>