<svg xmlns="http://www.w3.org/2000/svg" viewBox="0 0 59 61"><g><g><path fill="#212737" d="M29.907 52.682c0 4.189-3.436 7.597-7.66 7.597-4.223 0-7.66-3.408-7.66-7.597 0-4.186 3.437-7.593 7.66-7.593 4.224 0 7.66 3.407 7.66 7.593zm-4.596 0c0-1.674-1.375-3.038-3.063-3.038-1.69 0-3.064 1.364-3.064 3.038 0 1.676 1.374 3.038 3.064 3.038s3.063-1.362 3.063-3.038zm27.27 0c0 4.189-3.437 7.597-7.66 7.597-4.224 0-7.66-3.408-7.66-7.597 0-4.186 3.436-7.593 7.66-7.593 4.223 0 7.66 3.407 7.66 7.593zm-4.597 0c0-1.674-1.373-3.038-3.063-3.038-1.69 0-3.064 1.364-3.064 3.038 0 1.676 1.374 3.038 3.064 3.038s3.063-1.362 3.063-3.038zM58.65 16.894l-5.361 23.012a2.293 2.293 0 0 1-2.24 1.766h-32.17a2.294 2.294 0 0 1-2.255-1.837L9.879 6.041l-7.655-1.39A2.278 2.278 0 0 1 .378 2 2.292 2.292 0 0 1 3.053.17l9.191 1.67a2.289 2.289 0 0 1 1.84 1.798l2.09 10.466H56.41c.7 0 1.362.317 1.799.86a2.26 2.26 0 0 1 .44 1.93zm-5.129 1.768H17.082l3.683 18.453H49.22z"/></g></g></svg>