<svg xmlns="http://www.w3.org/2000/svg" viewBox="0 0 64 53"><g><g><path fill="#212737" d="M62.06 18.973c0 16.411-28.268 31.982-29.413 32.594a1.379 1.379 0 0 1-1.528 0c-1.147-.612-29.415-16.412-29.415-32.594 0-9.443 7.662-17.1 17.114-17.1a16.74 16.74 0 0 1 13.064 6.032 16.972 16.972 0 0 1 13.065-6.032c9.452 0 17.114 7.657 17.114 17.1zm-3.055 0A14.042 14.042 0 0 0 52.64 7.195c-6.498-4.246-15.21-2.424-19.459 4.068a1.604 1.604 0 0 1-2.597 0 13.752 13.752 0 0 0-11.766-6.335c-7.764 0-14.058 6.288-14.058 14.045 0 13.129 22.691 26.945 27.122 29.541 4.432-2.52 27.123-16.26 27.123-29.54z"/><path fill="none" stroke="#212737" stroke-linecap="round" stroke-linejoin="round" stroke-miterlimit="20" stroke-width="2" d="M62.06 18.973c0 16.411-28.268 31.982-29.413 32.594a1.379 1.379 0 0 1-1.528 0c-1.147-.612-29.415-16.412-29.415-32.594 0-9.443 7.662-17.1 17.114-17.1a16.74 16.74 0 0 1 13.064 6.032 16.972 16.972 0 0 1 13.065-6.032c9.452 0 17.114 7.657 17.114 17.1zm-3.055 0A14.042 14.042 0 0 0 52.64 7.195c-6.498-4.246-15.21-2.424-19.459 4.068a1.604 1.604 0 0 1-2.597 0 13.752 13.752 0 0 0-11.766-6.335c-7.764 0-14.058 6.288-14.058 14.045 0 13.129 22.691 26.945 27.122 29.541 4.432-2.52 27.123-16.26 27.123-29.54z"/></g></g></svg>