<svg xmlns="http://www.w3.org/2000/svg" viewBox="0 0 35 29"><g><g opacity=".3"><path fill="#464646" d="M33.71 10.397c0 8.793-15.33 17.135-15.952 17.462a.753.753 0 0 1-.829 0C16.307 27.532.976 19.067.976 10.397c0-5.06 4.156-9.16 9.282-9.16a9.125 9.125 0 0 1 7.085 3.23 9.25 9.25 0 0 1 7.086-3.23c5.126 0 9.282 4.1 9.282 9.16zm-1.657 0a7.498 7.498 0 0 0-3.452-6.31c-3.524-2.274-8.249-1.298-10.553 2.18a.877.877 0 0 1-1.409 0 7.485 7.485 0 0 0-6.381-3.395c-4.21 0-7.624 3.37-7.624 7.525 0 7.033 12.306 14.436 14.71 15.827 2.403-1.35 14.71-8.711 14.71-15.827z"/><path fill="none" stroke="#464646" stroke-linecap="round" stroke-linejoin="round" stroke-miterlimit="20" d="M33.71 10.397c0 8.793-15.33 17.135-15.952 17.462a.753.753 0 0 1-.829 0C16.307 27.532.976 19.067.976 10.397c0-5.06 4.156-9.16 9.282-9.16a9.125 9.125 0 0 1 7.085 3.23 9.25 9.25 0 0 1 7.086-3.23c5.126 0 9.282 4.1 9.282 9.16zm-1.657 0a7.498 7.498 0 0 0-3.452-6.31c-3.524-2.274-8.249-1.298-10.553 2.18a.877.877 0 0 1-1.409 0 7.485 7.485 0 0 0-6.381-3.395c-4.21 0-7.624 3.37-7.624 7.525 0 7.033 12.306 14.436 14.71 15.827 2.403-1.35 14.71-8.711 14.71-15.827z"/></g></g></svg>